<svg width="216" height="159" viewBox="0 0 216 159" fill="none" xmlns="http://www.w3.org/2000/svg">
<path fill-rule="evenodd" clip-rule="evenodd" d="M190.526 159C199.703 144.183 205 126.71 205 108C205 54.4284 161.572 11 108 11C54.4284 11 11 54.4284 11 108C11 126.71 16.2972 144.183 25.4736 159H190.526Z" fill="#6482AD"/>
<path fill-rule="evenodd" clip-rule="evenodd" d="M202.087 159C210.322 143.839 215 126.466 215 108C215 48.9055 167.094 1 108 1C48.9055 1 1 48.9055 1 108C1 126.466 5.67775 143.839 13.9129 159H12.7763C4.62408 143.811 0 126.445 0 108C0 48.3532 48.3532 0 108 0C167.647 0 216 48.3532 216 108C216 126.445 211.376 143.811 203.224 159H202.087Z" fill="#6482AD"/>
</svg>
