<svg width="345" height="568" viewBox="0 0 345 568" fill="none" xmlns="http://www.w3.org/2000/svg">
<path fill-rule="evenodd" clip-rule="evenodd" d="M345 27.0403C325.468 22.4361 305.098 20 284.16 20C138.268 20 20 138.268 20 284.16C20 430.052 138.268 548.32 284.16 548.32C305.098 548.32 325.468 545.884 345 541.28V27.0403Z" fill="#6482AD"/>
<path fill-rule="evenodd" clip-rule="evenodd" d="M345 6.57415C325.341 2.26882 304.921 0 283.97 0C127.138 0 0 127.138 0 283.97C0 440.802 127.138 567.94 283.97 567.94C304.921 567.94 325.341 565.671 345 561.366V560.342C325.345 564.663 304.923 566.94 283.97 566.94C127.69 566.94 1 440.25 1 283.97C1 127.69 127.69 1 283.97 1C304.923 1 325.345 3.27739 345 7.59816V6.57415Z" fill="#6482AD"/>
</svg>
